<?xml version="1.0" encoding="UTF-8" standalone="no"?>
<!-- Created with Inkscape (http://www.inkscape.org/) -->

<svg
   xmlns:dc="http://purl.org/dc/elements/1.1/"
   xmlns:cc="http://creativecommons.org/ns#"
   xmlns:rdf="http://www.w3.org/1999/02/22-rdf-syntax-ns#"
   xmlns:svg="http://www.w3.org/2000/svg"
   xmlns="http://www.w3.org/2000/svg"
   xmlns:sodipodi="http://sodipodi.sourceforge.net/DTD/sodipodi-0.dtd"
   xmlns:inkscape="http://www.inkscape.org/namespaces/inkscape"
   width="180"
   height="180"
   viewBox="0 0 179.99999 180"
   id="svg2"
   version="1.1"
   inkscape:version="0.91 r13725"
   sodipodi:docname="stereoscopic.svg">
  <defs
     id="defs4" />
  <sodipodi:namedview
     id="base"
     pagecolor="#ffffff"
     bordercolor="#666666"
     borderopacity="1.0"
     inkscape:pageopacity="0.0"
     inkscape:pageshadow="2"
     inkscape:zoom="1.4"
     inkscape:cx="92.015222"
     inkscape:cy="56.963718"
     inkscape:document-units="px"
     inkscape:current-layer="layer1"
     showgrid="false"
     inkscape:window-width="1280"
     inkscape:window-height="709"
     inkscape:window-x="0"
     inkscape:window-y="1"
     inkscape:window-maximized="1"
     fit-margin-top="0"
     fit-margin-left="0"
     fit-margin-right="0"
     fit-margin-bottom="0"
     units="px" />
  <metadata
     id="metadata7">
    <rdf:RDF>
      <cc:Work
         rdf:about="">
        <dc:format>image/svg+xml</dc:format>
        <dc:type
           rdf:resource="http://purl.org/dc/dcmitype/StillImage" />
        <dc:title></dc:title>
      </cc:Work>
    </rdf:RDF>
  </metadata>
  <g
     inkscape:label="Layer 1"
     inkscape:groupmode="layer"
     id="layer1"
     transform="translate(-210.07188,-259.18945)">
    <path
       style="opacity:0.98000004;fill:#ffffff;fill-opacity:1;fill-rule:nonzero;stroke:none;stroke-width:0.95300001;stroke-miterlimit:4;stroke-dasharray:none;stroke-dashoffset:0;stroke-opacity:1"
       d="m 286.43305,278.66302 -74.75269,83.54375 22.58788,0 44.44909,-66.17222 14.25288,11.90553 4.9123,-1.62906 -10.08818,-24.3857 -0.007,0.008 -1.3543,-3.27066 z m 27.27841,0 -1.3543,3.27066 -0.007,-0.008 -10.08818,24.38569 4.9123,1.62907 14.25288,-11.90553 44.44909,66.17222 22.58788,0 -74.7527,-83.54376 z m 57.24168,3.15908 0,1.20367 a 14.282177,14.282177 0 0 0 0.0251,-0.5035 14.282177,14.282177 0 0 0 -0.0251,-0.70017 z m -14.28496,14.98095 a 14.282177,14.282177 0 0 0 0.0279,9.9e-4 14.282177,14.282177 0 0 0 0.0391,-9.9e-4 l -0.0669,0 z m -145.59593,67.36892 0,41.767 a 14.282177,14.282177 0 0 0 14.21802,13.77728 l 60.01025,0 8.29175,-30.86429 0.004,0.0126 a 7.1410887,7.1410887 0 0 1 0.0669,-0.25245 7.1410887,7.1410887 0 0 1 0.22315,-0.67785 7.1410887,7.1410887 0 0 1 0.29011,-0.65273 7.1410887,7.1410887 0 0 1 0.35426,-0.61928 7.1410887,7.1410887 0 0 1 0.41424,-0.5816 7.1410887,7.1410887 0 0 1 0.47142,-0.53698 7.1410887,7.1410887 0 0 1 0.52164,-0.48676 7.1410887,7.1410887 0 0 1 0.56766,-0.43237 7.1410887,7.1410887 0 0 1 0.60671,-0.3738 7.1410887,7.1410887 0 0 1 0.64298,-0.31242 7.1410887,7.1410887 0 0 1 0.66948,-0.24547 7.1410887,7.1410887 0 0 1 0.69178,-0.17714 7.1410887,7.1410887 0 0 1 0.70575,-0.1074 7.1410887,7.1410887 0 0 1 0.24966,-0.0125 7.1410887,7.1410887 0 0 1 0.24965,0.0125 7.1410887,7.1410887 0 0 1 0.70575,0.1074 7.1410887,7.1410887 0 0 1 0.69179,0.17714 7.1410887,7.1410887 0 0 1 0.66948,0.24547 7.1410887,7.1410887 0 0 1 0.64297,0.31242 7.1410887,7.1410887 0 0 1 0.60672,0.3738 7.1410887,7.1410887 0 0 1 0.56766,0.43237 7.1410887,7.1410887 0 0 1 0.52164,0.48676 7.1410887,7.1410887 0 0 1 0.47141,0.53698 7.1410887,7.1410887 0 0 1 0.41425,0.5816 7.1410887,7.1410887 0 0 1 0.35425,0.61928 7.1410887,7.1410887 0 0 1 0.29012,0.65273 7.1410887,7.1410887 0 0 1 0.22315,0.67785 7.1410887,7.1410887 0 0 1 0.067,0.25245 l 0.004,-0.0126 8.29176,30.86429 60.01024,0 a 14.282177,14.282177 0 0 0 14.21802,-13.77728 l 0,-41.767 -88.5495,0 -89.4505,0 z m 9.13279,8.71157 59.96003,0 0,31.94382 a 5.496081,5.5057992 0 0 1 -5.49528,5.50506 l -48.96807,0 a 5.496081,5.5057992 0 0 1 -5.49668,-5.50506 l 0,-31.94382 z m 99.7744,0 59.96003,0 0,31.94382 a 5.496081,5.5057992 0 0 1 -5.49668,5.50506 l -48.96807,0 a 5.496081,5.5057992 0 0 1 -5.49528,-5.50506 l 0,-31.94382 z"
       id="path4148"
       inkscape:connector-curvature="0" />
  </g>
</svg>
